# xmcd CD database file
#
# Track frame offsets:
#	150
#	18447
#	33133
#	50492
#	66469
#	85031
#	99058
#	114642
#	131292
#	145122
#	162679
#	181062
#	197023
#	212456
#	229866
#	246415
#	262525
#	276830
#	293682
#
# Disc length: 4140 seconds
#
# Revision: 2
# Processed by: cddbd v1.5.2PL0 Copyright (c) Steve Scherf et al.
# Submitted via: CDex 1.51
#
DISCID=01102a13
DTITLE=Various Artist - COUNTRY RC103
DYEAR=2007
DGENRE=Country
TTITLE0=Tim McGraw - If You're Reading This
TTITLE1=Brooks and Dunn - Proud Of The House We Built
TTITLE2=Sugarland - Everyday America
TTITLE3=Toby Keith - Love Me If You Can
TTITLE4=Faith Hill - Lost
TTITLE5=Lee Brice - She Ain't Right
TTITLE6=Kenny Chesney - Never Wanted Nothing More
TTITLE7=Reba Mcentire ft. Kelly Clarkson - Becasue Of You
TTITLE8=Mark Wills - Days Of Thunder
TTITLE9=Half Way To Hazard - Daisy
TTITLE10=Little Big Town - A Little More You
TTITLE11=Trent Tomlinson - Just Might Have Her Radio On
TTITLE12=Carrie Underwood - I'll Stand By You
TTITLE13=Travis Tritt - You Never Take Me Dancing
TTITLE14=Sarah Johns - The One In The Middle
TTITLE15=Whiskey Falls - Last Train Running
TTITLE16=Eric Church - Guys Like Me
TTITLE17=Tracy Byrd - Better Places Than This
TTITLE18=Luke Bryan - All My Friends Say
EXTD=YEAR: 2007
EXTT0=
EXTT1=
EXTT2=
EXTT3=
EXTT4=
EXTT5=
EXTT6=
EXTT7=
EXTT8=
EXTT9=
EXTT10=
EXTT11=
EXTT12=
EXTT13=
EXTT14=
EXTT15=
EXTT16=
EXTT17=
EXTT18=
PLAYORDER=
